Rob Zombie - Hellbilly Deluxe - CD remaster by MC Lurken (a.k.a. Beavis39)



!!!!!!!!!!!!!THIS IS NOT AN OFFICIAL REMASTER, THIS IS A FAN RELEASE!!!!!!!!!!!!!!
!!!!!!!!!!!!!THIS IS NOT AN OFFICIAL REMASTER, THIS IS A FAN RELEASE!!!!!!!!!!!!!!
!!!!!!!!!!!!!THIS IS NOT AN OFFICIAL REMASTER, THIS IS A FAN RELEASE!!!!!!!!!!!!!!



1 - Call Of The Zombie
2 - Superbeast
3 - Dragula
4 - Living Dead Girl
5 - Perversion 99
6 - Demonoid Phenomenon
7 - Spookshow Baby
8 - How To Make A Monster
9 - Meet The Creeper
10 - The Ballad Of Resurrection Joe And Rosa Whore
11 - What Lurks On Channel X 
12 - Return Of The Phantom Stranger
13 - The Beginning Of The End



foobar2000 1.1.13 / Dynamic Range Meter 1.1.1
log date: 2012-07-09 14:41:54

--------------------------------------------------------------------------------
Analyzed: ? / ?
--------------------------------------------------------------------------------

DR         Peak         RMS     Duration Track
--------------------------------------------------------------------------------
DR8       -5.09 dB   -15.47 dB      0:31 ?-01 - Call Of The Zombie
DR6       -0.07 dB    -8.16 dB      3:40 ?-02 - Superbeast
DR7       -0.07 dB    -9.36 dB      3:43 ?-03 - Dragula
DR7       -0.07 dB    -8.55 dB      3:21 ?-04 - Living Dead Girl
DR11      -4.19 dB   -18.20 dB      1:43 ?-05 - Perversion 99
DR6       -0.07 dB    -8.05 dB      4:12 ?-06 - Demonoid Phenomenon
DR7       -0.07 dB    -8.75 dB      3:38 ?-07 - Spookshow Baby
DR12      -3.88 dB   -17.18 dB      1:39 ?-08 - How To Make A Monster
DR7       -0.07 dB    -8.62 dB      3:13 ?-09 - Meet The Creeper
DR6       -0.07 dB    -9.82 dB      3:56 ?-10 - The Ballad Of Resurrection Joe And Rosa Whore
DR6       -0.07 dB    -8.36 dB      2:30 ?-11 - What Lurks On Channel X 
DR8       -0.07 dB    -9.23 dB      4:32 ?-12 - Return Of The Phantom Stranger
DR8       -0.29 dB   -10.37 dB      1:53 ?-13 - The Beginning Of The End
--------------------------------------------------------------------------------

Number of tracks:  13
Official DR value: DR8

Samplerate:        96000 Hz
Channels:          2
Bits per sample:   24
Bitrate:           4608 kbps
Codec:             PCM

DR increased from 7 to 8


For maximum quality decode your flac files to a write speed limited drive such as a flash drive, Experiment with this yourself to understand what I'm talking about. Any questions feel free to ask.


Please seed as much as you can. Your help will be appreciated.




enjoy :)
